<svg xmlns="http://www.w3.org/2000/svg" width="164" height="40" viewBox="0 0 164 40" fill="none"><g clipPath="url(#clip0_89_710)"><path fill-rule="evenodd" clip-rule="evenodd" d="M26.8674 7.36133C31.3457 7.36133 35.2885 9.7003 37.5412 13.2223H45.8208C45.708 12.9123 45.5952 12.6022 45.4545 12.2922C44.4406 9.84034 42.9477 7.64281 41.0891 5.78251C39.7653 4.458 39.7653 2.31622 41.0891 0.992404C42.4129 -0.331407 44.5534 -0.332104 45.8765 0.992404C48.327 3.44424 50.3262 6.43118 51.7064 9.72817C53.0302 12.9123 53.762 16.3786 53.762 19.9856C53.762 23.5362 53.058 27.0304 51.7064 30.2709C50.3548 33.5115 48.3834 36.4984 45.8765 39.0067C44.5528 40.3312 42.4122 40.3312 41.0891 39.0067C39.766 37.6822 39.7653 35.5404 41.0891 34.2166C43.0041 32.3005 44.4685 30.1023 45.4545 27.7069C46.4406 25.3115 46.9754 22.6911 46.9754 19.9856C46.9754 18.8304 46.8911 17.7031 46.694 16.6043H39.062H26.896C25.0374 16.6043 23.5166 18.126 23.5166 19.9856C23.5166 21.8452 25.0374 23.3669 26.896 23.3669H39.0627C37.5697 28.6928 32.698 32.6099 26.896 32.6099C19.9116 32.6099 14.2509 26.9461 14.2509 19.9577C14.2509 12.9694 19.9116 7.30559 26.896 7.30559L26.8674 7.36133ZM12.6451 34.2159C13.9689 35.5404 13.9689 37.6822 12.6451 39.006C11.3213 40.3305 9.18074 40.3305 7.85766 39.006C2.98527 34.1316 0 27.4247 0 19.9856C0 16.3786 0.732565 12.8844 2.05564 9.72817C3.43581 6.43118 5.40719 3.44424 7.88552 0.992404C9.20929 -0.332104 11.3499 -0.332104 12.673 0.992404C13.996 2.31691 13.9967 4.4587 12.673 5.78251C10.8144 7.64212 9.3214 9.86821 8.30751 12.2922C7.32147 14.659 6.78667 17.2516 6.78667 19.9849C6.78667 25.5359 9.04007 30.5517 12.673 34.2152H12.6451V34.2159Z" fill="white"></path></g><path d="M75.1597 19.046H81.7557V28.056C81.6877 28.022 81.2117 27.818 80.0557 29.11C78.1857 31.184 75.7717 32.272 72.9837 32.272C67.1017 32.272 63.1237 27.41 63.1237 20.134C63.1237 12.824 67.1017 7.996 73.0177 7.996C75.3637 7.996 77.3017 8.982 79.6477 8.982C80.4977 8.982 81.1777 8.404 81.3817 8.2C81.4497 8.574 81.9597 11.294 79.2057 11.294C76.6217 11.294 77.3357 8.438 73.8677 8.438C69.1757 8.438 68.2917 15.612 68.2917 20.134C68.2917 24.554 70.1277 31.252 75.1937 31.252C75.7037 31.252 76.1797 31.15 76.6557 31.048V19.42H75.3637L75.1597 19.046ZM100.188 27.988C100.46 29.382 100.256 30.844 98.8965 31.626C97.5705 32.544 93.3885 32.306 92.1305 32.102C90.2605 31.83 89.1725 31.796 87.9145 31.796C86.5545 31.796 85.6705 31.898 84.5145 32.272V8.2H99.3725L99.9845 10.818H99.6445C99.5765 10.614 98.8965 8.574 92.0965 8.574H89.6485V19.93H92.5385C96.2785 19.93 96.8565 19.284 96.9245 19.182H97.2305V21.018H96.9245C96.8565 20.95 96.2785 20.27 92.5385 20.27H89.6485V31.422C90.8385 30.946 92.4365 31.048 93.7285 31.048C97.5705 31.048 99.5765 29.654 99.8485 27.988H100.188ZM110.958 32.272C105.144 32.272 103.172 29.824 102.968 29.552C101.166 27.614 102.186 25.03 102.322 24.758H102.594C102.594 29.484 106.844 31.864 110.652 31.864C112.624 31.864 114.494 31.218 114.494 28.94C114.494 26.118 111.74 24.452 108.816 22.684C105.62 20.712 102.22 18.638 102.22 14.592C102.22 10.308 106.062 8.03 109.972 8.03C112.284 8.03 114.222 8.982 116.568 8.982C117.214 8.982 117.86 8.676 118.336 8.2C118.54 9.866 118.03 11.294 116.126 11.294C113.066 11.294 113.644 8.37 109.768 8.37C107.694 8.37 105.96 9.696 105.96 11.974C105.96 14.898 108.748 16.394 111.638 17.958C115.004 19.794 118.54 21.766 118.54 26.016C118.54 30.436 114.766 32.272 110.958 32.272ZM138.745 8.2L139.391 10.818H139.051C138.949 10.614 137.895 8.574 134.223 8.574H132.217V32H127.083V8.574H125.077C121.371 8.574 120.351 10.614 120.249 10.818H119.909L120.521 8.2H138.745ZM162.383 20.032C162.383 27.75 157.385 32.272 150.687 32.272C143.819 32.272 139.059 27.512 139.059 19.998C139.059 12.348 144.023 7.758 150.755 7.758C157.589 7.758 162.383 12.484 162.383 20.032ZM157.283 19.998C157.283 15.204 156.229 8.2 150.755 8.2C145.213 8.2 144.193 15.34 144.193 20.168C144.193 24.86 145.179 31.83 150.687 31.83C156.263 31.83 157.283 24.724 157.283 19.998Z" fill="white"></path><defs><clipPath id="clip0_89_710"><rect width="53.7634" height="40" fill="white"></rect></clipPath></defs></svg>