<svg xmlns="http://www.w3.org/2000/svg" width="57" height="44" viewBox="0 0 57 44" fill="none"><g clip-path="url(#clip0_96_863)"><path fill-rule="evenodd" clip-rule="evenodd" d="M27.46 9.39524C31.9273 9.08286 36.0236 11.1411 38.5165 14.4974L46.776 13.9198C46.6419 13.6184 46.5077 13.317 46.3457 13.0175C45.1633 10.6424 43.5207 8.55434 41.5368 6.82822C40.1239 5.59928 39.9745 3.46271 41.2027 2.04978C42.4309 0.636852 44.5662 0.486837 45.9785 1.71583C48.594 3.99075 50.7967 6.83096 52.4035 10.0236C53.9462 13.1077 54.9181 16.5145 55.1697 20.1127C55.4174 23.6547 54.9588 27.1894 53.8365 30.5164C52.7142 33.8433 50.956 36.9605 48.6302 39.6375C47.4021 41.0511 45.2667 41.2005 43.8544 39.9715C42.4422 38.7425 42.2921 36.606 43.5203 35.193C45.297 33.1481 46.6045 30.853 47.421 28.3947C48.2376 25.9364 48.5883 23.285 48.3995 20.5861C48.319 19.4337 48.1563 18.315 47.883 17.2327L40.2696 17.7651L28.1332 18.6137C26.2792 18.7434 24.8682 20.3674 24.9979 22.2225C25.1276 24.0776 26.7509 25.4895 28.6049 25.3598L40.742 24.5111C39.6242 29.9282 35.0376 34.1756 29.2497 34.5803C22.2823 35.0675 16.2403 29.8124 15.7528 22.8411C15.2654 15.8698 20.5171 9.82486 27.4846 9.33765L27.46 9.39524ZM15.1456 37.1765C16.5585 38.4054 16.7079 40.542 15.4797 41.9549C14.2515 43.3685 12.1162 43.5179 10.7039 42.2889C5.50338 37.7662 2.05753 31.284 1.5386 23.863C1.28699 20.2647 1.77403 16.7279 2.87371 13.4871C4.02054 10.1019 5.77876 6.98469 8.08001 4.36594C9.30816 2.95232 11.4435 2.803 12.8558 4.03199C14.268 5.26098 14.4181 7.3975 13.1899 8.81043C11.4656 10.7952 10.1315 13.12 9.28921 15.6088C8.47067 18.0386 8.11803 20.6622 8.30869 23.3888C8.69591 28.9263 11.2937 33.7727 15.1733 37.1738L15.1455 37.1758L15.1456 37.1765Z" fill="#131928"></path></g><defs><clipPath id="clip0_96_863"><rect x="0.14447" y="3.92603" width="53.7634" height="40" transform="rotate(-4 0.14447 3.92603)" fill="white"></rect></clipPath></defs></svg>